<svg height="894" viewBox="0 0 640 894" width="640" xmlns="http://www.w3.org/2000/svg" xmlns:xlink="http://www.w3.org/1999/xlink"><defs><linearGradient id="a" x1="50%" x2="50%" y1="0%" y2="100%"><stop offset="0" stop-color="#fad961"/><stop offset="1" stop-color="#f76b1c"/></linearGradient><path id="b" d="m1.375 721.53125c73.9905391-465.183542 111.579081-701.7722557 112.765625-709.7661414 1.779816-11.99082846 14.489746-17.76174685 26.773437 0 8.189128 11.8411646 173.953451 248.4298784 497.292969 709.7661414z"/></defs><g fill="none" fill-rule="evenodd"><path d="m1.06640625 721.53125c197.16813475-379.846077 300.82874975-579.976285 310.98184575-600.390625 15.229645-30.6215101 29.698782 0 29.698782 0s99.118176 200.130208 297.354528 600.390625z" fill="#425467" opacity=".9" stroke="#979797"/><g opacity=".8"><use fill="#345170" xlink:href="#b"/><use fill="url(#a)" xlink:href="#b"/></g><path d="m1.5625 722.515048c335.966146-340.34375 510.963542-517.342448 524.992188-530.996094 21.042968-20.480469 24.777343-4.523437 29.253906 15.949219 2.984375 13.648437 30.914062 185.330729 83.789062 515.046875-190.299479 104.875-292.152343 160.872396-305.558594 167.992187-20.109374 10.679688-52.089843-6.164062-60.726562-10.679687-5.757812-3.010417-96.341146-55.447917-271.75-157.3125z" fill="#48bb86" opacity=".7"/></g></svg>