<svg xmlns="http://www.w3.org/2000/svg" viewBox="0 0 500 500"><title>Vuefire Logo</title><polygon points="250 0 208.6 83 166.8 166.7 208.6 250.4 250 166.7 250 166.7 291.4 83 250 0" fill="#ffe183"/><polygon points="291.4 250.4 250 333.3 291.4 417 375 250.4 291.4 250.4" fill="#36495f"/><polygon points="250 333.3 208.6 250.4 125 250.4 208.6 417 250 500 291.4 417 250 333.3" fill="#3cb982"/><polygon points="250 250.4 208.6 250.4 250 333.3 291.4 250.4 250 250.4" fill="#f58220"/><polygon points="291.4 83 250 166.7 208.6 250.4 250 250.4 291.4 250.4 333.2 166.7 291.4 83" fill="#ffcd05"/></svg>
