<?xml version="1.0" encoding="utf-8"?>
<!-- Generator: Adobe Illustrator 23.0.1, SVG Export Plug-In . SVG Version: 6.00 Build 0)  -->
<svg version="1.1" id="Layer_1" xmlns="http://www.w3.org/2000/svg" xmlns:xlink="http://www.w3.org/1999/xlink" x="0px" y="0px"
	 viewBox="0 0 250 500" style="enable-background:new 0 0 250 500;" xml:space="preserve">
<style type="text/css">
	.st0{fill:#FFCD05;}
	.st1{fill:#FFE183;}
	.st2{fill:#36495F;}
	.st3{fill:#3CB982;}
	.st4{fill:#F58220;}
</style>
<g>
	<polygon class="st0" points="125,166.67 125,166.67 125,166.67 	"/>
	<polygon class="st0" points="125,166.67 125,166.67 125,166.67 	"/>
	<rect x="125" y="166.67" class="st0" width="0" height="0"/>
	<polygon class="st1" points="125,0 83.58,82.97 41.79,166.67 83.58,250.37 125,166.67 125,166.67 166.42,82.97 	"/>
	<polygon class="st0" points="125,333.33 125,333.33 125,333.33 	"/>
	<polygon class="st0" points="125,333.33 125,333.33 125,333.33 	"/>
	<rect x="125" y="333.33" class="st0" width="0" height="0"/>
	<polygon class="st2" points="166.42,250.37 125,333.33 166.42,417.03 250,250.37 	"/>
	<polygon class="st3" points="125,333.33 83.58,250.37 0,250.37 83.58,417.03 125,500 166.42,417.03 	"/>
	<polygon class="st4" points="125,250.37 83.58,250.37 125,333.33 166.42,250.37 	"/>
	<polygon class="st0" points="166.42,82.97 125,166.67 83.58,250.37 125,250.37 166.42,250.37 208.21,166.67 	"/>
</g>
</svg>
